<?xml version="1.0" standalone="no"?>
<!DOCTYPE svg PUBLIC "-//W3C//DTD SVG 20010904//EN"
 "http://www.w3.org/TR/2001/REC-SVG-20010904/DTD/svg10.dtd">
<svg version="1.0" xmlns="http://www.w3.org/2000/svg"
 width="1024.000000pt" height="1024.000000pt" viewBox="0 0 1024.000000 1024.000000"
 preserveAspectRatio="xMidYMid meet">
<metadata>
Created by potrace 1.14, written by Peter Selinger 2001-2017
</metadata>
<g transform="translate(0.000000,1024.000000) scale(0.100000,-0.100000)"
fill="#000000" stroke="none">
<path d="M2630 7955 l0 -695 -505 0 -505 0 0 -397 0 -398 490 3 c269 1 490 1
490 0 -2 -34 -141 -482 -205 -663 -231 -650 -490 -1172 -852 -1719 l-153 -230
178 -448 c97 -246 180 -448 183 -448 10 0 213 377 337 625 184 370 315 672
463 1070 l78 210 1 -1787 0 -1788 410 0 410 0 2 1882 3 1882 129 -239 c70
-131 187 -351 258 -487 72 -136 132 -248 134 -248 4 0 108 154 316 471 l156
237 -151 198 c-227 301 -539 685 -786 969 l-61 70 0 223 0 222 435 0 435 0 0
395 0 395 -435 0 -435 0 0 695 0 695 -410 0 -410 0 0 -695z"/>
<path d="M4840 7130 l0 -1290 1750 0 1750 0 2 1290 3 1290 -1752 0 -1753 0 0
-1290z m2725 463 c-4 -76 -8 -139 -9 -140 -1 -1 -436 -3 -966 -3 l-965 -2 -3
141 -3 141 977 0 976 0 -7 -137z m0 -925 c-4 -79 -8 -144 -9 -145 -1 -1 -436
-3 -966 -3 l-965 -2 -3 146 -3 146 977 0 976 0 -7 -142z"/>
<path d="M4460 5228 l0 -363 405 3 c242 1 405 -1 405 -7 0 -35 -252 -309 -413
-447 -251 -216 -415 -326 -855 -571 l-42 -24 78 -102 c42 -56 149 -195 236
-309 l158 -207 87 56 c239 154 495 340 664 484 54 46 111 94 126 107 28 22 32
22 261 20 l233 -3 -60 -75 c-71 -88 -286 -300 -393 -386 -260 -210 -518 -369
-856 -529 l-151 -71 240 -297 240 -296 107 54 c615 308 1134 754 1489 1280 48
72 112 174 142 227 l54 98 153 0 153 0 -6 -22 c-22 -73 -230 -434 -353 -613
-380 -555 -925 -991 -1553 -1244 l-107 -42 216 -322 c118 -177 218 -326 222
-330 4 -4 59 15 124 42 720 309 1315 841 1754 1571 117 194 311 585 396 795
l64 160 71 3 71 3 0 -43 c0 -80 -20 -461 -36 -678 -24 -348 -54 -578 -95 -740
-56 -220 -185 -350 -376 -381 -69 -11 -308 -3 -527 18 -64 6 -68 5 -63 -13 3
-10 49 -180 103 -377 l98 -358 406 3 c460 5 483 8 650 90 104 52 218 160 273
258 200 361 301 1141 352 2707 l7 193 -1351 2 -1350 3 93 155 93 155 1341 3
1342 2 0 360 0 360 -2160 0 -2160 0 0 -362z"/>
</g>
</svg>
