<svg version="1.1" xmlns="http://www.w3.org/2000/svg" xmlns:xlink="http://www.w3.org/1999/xlink" width="1376" height="1271"><defs><clipPath id="zLqKHAOsuVzd"><path fill="none" stroke="none" d=" M 0 0 L 1376 0 L 1376 1271 L 0 1271 L 0 0 Z"/></clipPath></defs><g transform="scale(1,1)" clip-path="url(#zLqKHAOsuVzd)"><g><rect fill="rgb(255,255,255)" stroke="none" x="0" y="0" width="1376" height="1271" fill-opacity="1"/><path fill="none" stroke="rgb(192,192,192)" paint-order="fill stroke markers" d=" M 158.5 0.5 L 158.5 1271.5 M 158.5 0.5 L 158.5 1271.5 M 1242.5 0.5 L 1242.5 1271.5" stroke-opacity="1" stroke-linecap="round" stroke-linejoin="round" stroke-miterlimit="10"/><path fill="none" stroke="rgb(192,192,192)" paint-order="fill stroke markers" d=" M 50.5 0.5 L 50.5 1271.5 M 267.5 0.5 L 267.5 1271.5 M 375.5 0.5 L 375.5 1271.5 M 483.5 0.5 L 483.5 1271.5 M 592.5 0.5 L 592.5 1271.5 M 808.5 0.5 L 808.5 1271.5 M 917.5 0.5 L 917.5 1271.5 M 1025.5 0.5 L 1025.5 1271.5 M 1133.5 0.5 L 1133.5 1271.5 M 1350.5 0.5 L 1350.5 1271.5" stroke-opacity="0.23529411764705882" stroke-linecap="round" stroke-linejoin="round" stroke-miterlimit="10"/><path fill="none" stroke="rgb(192,192,192)" paint-order="fill stroke markers" d=" M 0.5 210.5 L 1376.5 210.5 M 0.5 210.5 L 1376.5 210.5" stroke-opacity="1" stroke-linecap="round" stroke-linejoin="round" stroke-miterlimit="10"/><path fill="none" stroke="rgb(192,192,192)" paint-order="fill stroke markers" d=" M 0.5 102.5 L 1376.5 102.5 M 0.5 102.5 L 1376.5 102.5 M 0.5 319.5 L 1376.5 319.5 M 0.5 427.5 L 1376.5 427.5 M 0.5 535.5 L 1376.5 535.5 M 0.5 644.5 L 1376.5 644.5 M 0.5 861.5 L 1376.5 861.5 M 0.5 969.5 L 1376.5 969.5 M 0.5 1077.5 L 1376.5 1077.5 M 0.5 1186.5 L 1376.5 1186.5" stroke-opacity="0.23529411764705882" stroke-linecap="round" stroke-linejoin="round" stroke-miterlimit="10"/><path fill="none" stroke="rgb(0,0,0)" paint-order="fill stroke markers" d=" M 700.5 2.5 L 700.5 1271.5" stroke-opacity="1" stroke-miterlimit="10"/><path fill="none" stroke="rgb(0,0,0)" paint-order="fill stroke markers" d=" M 700.5 1.5 L 696.5 5.5" stroke-opacity="1" stroke-miterlimit="10"/><path fill="none" stroke="rgb(0,0,0)" paint-order="fill stroke markers" d=" M 700.5 1.5 L 704.5 5.5" stroke-opacity="1" stroke-miterlimit="10"/><text fill="rgb(0,0,0)" stroke="none" font-family="geogebra-sans-serif, sans-serif" font-size="16px" font-style="normal" font-weight="normal" text-decoration="normal" x="1358" y="748" text-anchor="start" dominant-baseline="alphabetic" fill-opacity="1">x</text><path fill="none" stroke="rgb(0,0,0)" paint-order="fill stroke markers" d=" M 0.5 752.5 L 1374.5 752.5" stroke-opacity="1" stroke-miterlimit="10"/><path fill="none" stroke="rgb(0,0,0)" paint-order="fill stroke markers" d=" M 1375.5 752.5 L 1371.5 748.5" stroke-opacity="1" stroke-miterlimit="10"/><path fill="none" stroke="rgb(0,0,0)" paint-order="fill stroke markers" d=" M 1375.5 752.5 L 1371.5 756.5" stroke-opacity="1" stroke-miterlimit="10"/><text fill="rgb(0,0,0)" stroke="none" font-family="geogebra-sans-serif, sans-serif" font-size="12px" font-style="normal" font-weight="normal" text-decoration="normal" x="153" y="768" text-anchor="start" dominant-baseline="alphabetic" fill-opacity="1">–1</text><text fill="none" stroke="rgb(255,255,255)" font-family="geogebra-sans-serif, sans-serif" font-size="12px" font-style="normal" font-weight="normal" text-decoration="normal" x="153" y="768" text-anchor="start" dominant-baseline="alphabetic" stroke-opacity="1" stroke-linejoin="bevel" stroke-miterlimit="10" stroke-width="3">–1</text><text fill="rgb(0,0,0)" stroke="none" font-family="geogebra-sans-serif, sans-serif" font-size="12px" font-style="normal" font-weight="normal" text-decoration="normal" x="153" y="768" text-anchor="start" dominant-baseline="alphabetic" fill-opacity="1">–1</text><text fill="rgb(0,0,0)" stroke="none" font-family="geogebra-sans-serif, sans-serif" font-size="12px" font-style="normal" font-weight="normal" text-decoration="normal" x="1240" y="768" text-anchor="start" dominant-baseline="alphabetic" fill-opacity="1">1</text><text fill="none" stroke="rgb(255,255,255)" font-family="geogebra-sans-serif, sans-serif" font-size="12px" font-style="normal" font-weight="normal" text-decoration="normal" x="1240" y="768" text-anchor="start" dominant-baseline="alphabetic" stroke-opacity="1" stroke-linejoin="bevel" stroke-miterlimit="10" stroke-width="3">1</text><text fill="rgb(0,0,0)" stroke="none" font-family="geogebra-sans-serif, sans-serif" font-size="12px" font-style="normal" font-weight="normal" text-decoration="normal" x="1240" y="768" text-anchor="start" dominant-baseline="alphabetic" fill-opacity="1">1</text><text fill="rgb(0,0,0)" stroke="none" font-family="geogebra-sans-serif, sans-serif" font-size="16px" font-style="normal" font-weight="normal" text-decoration="normal" x="705" y="17" text-anchor="start" dominant-baseline="alphabetic" fill-opacity="1">y</text><text fill="rgb(0,0,0)" stroke="none" font-family="geogebra-sans-serif, sans-serif" font-size="12px" font-style="normal" font-weight="normal" text-decoration="normal" x="686" y="215" text-anchor="start" dominant-baseline="alphabetic" fill-opacity="1">1</text><text fill="none" stroke="rgb(255,255,255)" font-family="geogebra-sans-serif, sans-serif" font-size="12px" font-style="normal" font-weight="normal" text-decoration="normal" x="686" y="215" text-anchor="start" dominant-baseline="alphabetic" stroke-opacity="1" stroke-linejoin="bevel" stroke-miterlimit="10" stroke-width="3">1</text><text fill="rgb(0,0,0)" stroke="none" font-family="geogebra-sans-serif, sans-serif" font-size="12px" font-style="normal" font-weight="normal" text-decoration="normal" x="686" y="215" text-anchor="start" dominant-baseline="alphabetic" fill-opacity="1">1</text><text fill="rgb(0,0,0)" stroke="none" font-family="geogebra-sans-serif, sans-serif" font-size="12px" font-style="normal" font-weight="normal" text-decoration="normal" x="686" y="768" text-anchor="start" dominant-baseline="alphabetic" fill-opacity="1">0</text><text fill="none" stroke="rgb(255,255,255)" font-family="geogebra-sans-serif, sans-serif" font-size="12px" font-style="normal" font-weight="normal" text-decoration="normal" x="686" y="768" text-anchor="start" dominant-baseline="alphabetic" stroke-opacity="1" stroke-linejoin="bevel" stroke-miterlimit="10" stroke-width="3">0</text><text fill="rgb(0,0,0)" stroke="none" font-family="geogebra-sans-serif, sans-serif" font-size="12px" font-style="normal" font-weight="normal" text-decoration="normal" x="686" y="768" text-anchor="start" dominant-baseline="alphabetic" fill-opacity="1">0</text><path fill="rgb(0,0,0)" stroke="none" paint-order="stroke fill markers" d=" M 730.5483206352482 752.6620827041751 C 730.5483206352482 740.2417525656618 722.8947362295564 729.1057181536737 711.2993591216072 724.654669909259 L 700.5483206352482 752.6620827041751 Z" fill-opacity="0.09803921568627451"/><path fill="none" stroke="rgb(0,0,0)" paint-order="fill stroke markers" d=" M 730.5483206352482 752.6620827041751 C 730.5483206352482 740.2417525656618 722.8947362295564 729.1057181536737 711.2993591216072 724.654669909259 L 700.5483206352482 752.6620827041751 Z" stroke-opacity="0.6" stroke-linecap="round" stroke-linejoin="round" stroke-miterlimit="10" stroke-width="2.5"/><path fill="rgb(0,0,0)" stroke="none" paint-order="stroke fill markers" fill-rule="evenodd" d=" M 711.2993591216072 724.654669909259 L 725.5223439044365 729.2332017555397 L 719.9306278401021 736.8512862559811 Z" fill-opacity="0.6"/><text fill="rgb(0,0,0)" stroke="none" font-family="geogebra-sans-serif, sans-serif" font-size="16px" font-style="normal" font-weight="normal" text-decoration="normal" x="712" y="747" text-anchor="start" dominant-baseline="alphabetic" fill-opacity="1">θ</text><text fill="none" stroke="rgb(255,255,255)" font-family="geogebra-sans-serif, sans-serif" font-size="16px" font-style="normal" font-weight="normal" text-decoration="normal" x="712" y="747" text-anchor="start" dominant-baseline="alphabetic" stroke-opacity="1" stroke-linejoin="bevel" stroke-miterlimit="10" stroke-width="3">θ</text><text fill="rgb(0,0,0)" stroke="none" font-family="geogebra-sans-serif, sans-serif" font-size="16px" font-style="normal" font-weight="normal" text-decoration="normal" x="712" y="747" text-anchor="start" dominant-baseline="alphabetic" fill-opacity="1">θ</text><path fill="rgb(0,0,0)" stroke="none" paint-order="stroke fill markers" d=" M 700.5483206352482 722.6620827041751 C 688.1279904967349 722.6620827041751 676.9919560847468 730.3156671098668 672.5409078403321 741.9110442178161 L 700.5483206352482 752.6620827041751 Z" fill-opacity="0.09803921568627451"/><path fill="none" stroke="rgb(0,0,0)" paint-order="fill stroke markers" d=" M 700.5483206352482 722.6620827041751 C 688.1279904967349 722.6620827041751 676.9919560847468 730.3156671098668 672.5409078403321 741.9110442178161 L 700.5483206352482 752.6620827041751 Z" stroke-opacity="0.6" stroke-linecap="round" stroke-linejoin="round" stroke-miterlimit="10" stroke-width="2.5"/><path fill="rgb(0,0,0)" stroke="none" paint-order="stroke fill markers" fill-rule="evenodd" d=" M 672.5409078403321 741.9110442178161 L 677.1194396866128 727.6880594349867 L 684.7375241870542 733.279775499321 Z" fill-opacity="0.6"/><text fill="rgb(0,0,0)" stroke="none" font-family="geogebra-sans-serif, sans-serif" font-size="16px" font-style="normal" font-weight="normal" text-decoration="normal" x="687" y="743" text-anchor="start" dominant-baseline="alphabetic" fill-opacity="1">θ</text><text fill="none" stroke="rgb(255,255,255)" font-family="geogebra-sans-serif, sans-serif" font-size="16px" font-style="normal" font-weight="normal" text-decoration="normal" x="687" y="743" text-anchor="start" dominant-baseline="alphabetic" stroke-opacity="1" stroke-linejoin="bevel" stroke-miterlimit="10" stroke-width="3">θ</text><text fill="rgb(0,0,0)" stroke="none" font-family="geogebra-sans-serif, sans-serif" font-size="16px" font-style="normal" font-weight="normal" text-decoration="normal" x="687" y="743" text-anchor="start" dominant-baseline="alphabetic" fill-opacity="1">θ</text><path fill="none" stroke="rgb(0,0,0)" paint-order="fill stroke markers" d=" M 700.5483206352482 752.6620827041751 L 1225.2968403592092 752.6620827041751" stroke-opacity="0.6980392156862745" stroke-linecap="round" stroke-linejoin="round" stroke-miterlimit="10" stroke-width="2.5"/><path fill="rgb(0,0,0)" stroke="none" paint-order="stroke fill markers" fill-rule="evenodd" d=" M 1242.2968403592092 752.6620827041751 L 1225.2968403592092 756.9120827041751 L 1225.2968403592092 748.4120827041751 Z" fill-opacity="0.6980392156862745"/><path fill="none" stroke="rgb(0,0,0)" paint-order="fill stroke markers" d=" M 700.5483206352482 752.6620827041751 L 700.5483206352482 227.913562980214" stroke-opacity="0.6980392156862745" stroke-linecap="round" stroke-linejoin="round" stroke-miterlimit="10" stroke-width="2.5"/><path fill="rgb(0,0,0)" stroke="none" paint-order="stroke fill markers" fill-rule="evenodd" d=" M 700.5483206352482 210.913562980214 L 704.7983206352482 227.913562980214 L 696.2983206352482 227.913562980214 Z" fill-opacity="0.6980392156862745"/><path fill="none" stroke="rgb(0,0,0)" paint-order="fill stroke markers" d=" M 700.5483206352482 752.6620827041751 L 888.6013716756557 262.76713585650424" stroke-opacity="0.6980392156862745" stroke-linecap="round" stroke-linejoin="round" stroke-miterlimit="10" stroke-width="2.5"/><path fill="rgb(0,0,0)" stroke="none" paint-order="stroke fill markers" fill-rule="evenodd" d=" M 894.6936268179259 246.89626860605182 L 892.5690884882689 264.29019964207174 L 884.6336548630426 261.24407207093674 Z" fill-opacity="0.6980392156862745"/><path fill="none" stroke="rgb(0,0,0)" paint-order="fill stroke markers" d=" M 700.5483206352482 752.6620827041751 L 210.65337378757738 564.6090316637674" stroke-opacity="0.6980392156862745" stroke-linecap="round" stroke-linejoin="round" stroke-miterlimit="10" stroke-width="2.5"/><path fill="rgb(0,0,0)" stroke="none" paint-order="stroke fill markers" fill-rule="evenodd" d=" M 194.78250653712496 558.5167765214973 L 212.1764375731449 560.6413148511542 L 209.13031000200985 568.5767484763805 Z" fill-opacity="0.6980392156862745"/><path fill="rgb(97,97,97)" stroke="none" paint-order="stroke fill markers" d=" M 705.5483206352482 752.6620827041751 C 705.5483206352482 755.4235064533291 703.3097443844022 757.6620827041751 700.5483206352482 757.6620827041751 C 697.7868968860942 757.6620827041751 695.5483206352482 755.4235064533291 695.5483206352482 752.6620827041751 C 695.5483206352482 749.9006589550211 697.7868968860942 747.6620827041751 700.5483206352482 747.6620827041751 C 703.3097443844022 747.6620827041751 705.5483206352482 749.9006589550211 705.5483206352482 752.6620827041751 Z" fill-opacity="1"/><path fill="none" stroke="rgb(0,0,0)" paint-order="fill stroke markers" d=" M 705.5483206352482 752.6620827041751 C 705.5483206352482 755.4235064533291 703.3097443844022 757.6620827041751 700.5483206352482 757.6620827041751 C 697.7868968860942 757.6620827041751 695.5483206352482 755.4235064533291 695.5483206352482 752.6620827041751 C 695.5483206352482 749.9006589550211 697.7868968860942 747.6620827041751 700.5483206352482 747.6620827041751 C 703.3097443844022 747.6620827041751 705.5483206352482 749.9006589550211 705.5483206352482 752.6620827041751 Z" stroke-opacity="1" stroke-linecap="round" stroke-linejoin="round" stroke-miterlimit="10"/><path fill="rgb(21,101,192)" stroke="none" paint-order="stroke fill markers" d=" M 1247.2968403592092 752.6620827041751 C 1247.2968403592092 755.4235064533291 1245.0582641083631 757.6620827041751 1242.2968403592092 757.6620827041751 C 1239.5354166100553 757.6620827041751 1237.2968403592092 755.4235064533291 1237.2968403592092 752.6620827041751 C 1237.2968403592092 749.9006589550211 1239.5354166100553 747.6620827041751 1242.2968403592092 747.6620827041751 C 1245.0582641083631 747.6620827041751 1247.2968403592092 749.9006589550211 1247.2968403592092 752.6620827041751 Z" fill-opacity="1"/><path fill="none" stroke="rgb(0,0,0)" paint-order="fill stroke markers" d=" M 1247.2968403592092 752.6620827041751 C 1247.2968403592092 755.4235064533291 1245.0582641083631 757.6620827041751 1242.2968403592092 757.6620827041751 C 1239.5354166100553 757.6620827041751 1237.2968403592092 755.4235064533291 1237.2968403592092 752.6620827041751 C 1237.2968403592092 749.9006589550211 1239.5354166100553 747.6620827041751 1242.2968403592092 747.6620827041751 C 1245.0582641083631 747.6620827041751 1247.2968403592092 749.9006589550211 1247.2968403592092 752.6620827041751 Z" stroke-opacity="1" stroke-linecap="round" stroke-linejoin="round" stroke-miterlimit="10"/><text fill="rgb(21,101,192)" stroke="none" font-family="geogebra-sans-serif, sans-serif" font-size="16px" font-style="normal" font-weight="normal" text-decoration="normal" x="1246" y="743" text-anchor="start" dominant-baseline="alphabetic" fill-opacity="1">p=[1,0]</text><text fill="none" stroke="rgb(255,255,255)" font-family="geogebra-sans-serif, sans-serif" font-size="16px" font-style="normal" font-weight="normal" text-decoration="normal" x="1246" y="743" text-anchor="start" dominant-baseline="alphabetic" stroke-opacity="1" stroke-linejoin="bevel" stroke-miterlimit="10" stroke-width="3">p=[1,0]</text><text fill="rgb(21,101,192)" stroke="none" font-family="geogebra-sans-serif, sans-serif" font-size="16px" font-style="normal" font-weight="normal" text-decoration="normal" x="1246" y="743" text-anchor="start" dominant-baseline="alphabetic" fill-opacity="1">p=[1,0]</text><path fill="rgb(21,101,192)" stroke="none" paint-order="stroke fill markers" d=" M 705.5483206352482 210.913562980214 C 705.5483206352482 213.674986729368 703.3097443844022 215.913562980214 700.5483206352482 215.913562980214 C 697.7868968860942 215.913562980214 695.5483206352482 213.674986729368 695.5483206352482 210.913562980214 C 695.5483206352482 208.15213923106003 697.7868968860942 205.913562980214 700.5483206352482 205.913562980214 C 703.3097443844022 205.913562980214 705.5483206352482 208.15213923106003 705.5483206352482 210.913562980214 Z" fill-opacity="1"/><path fill="none" stroke="rgb(0,0,0)" paint-order="fill stroke markers" d=" M 705.5483206352482 210.913562980214 C 705.5483206352482 213.674986729368 703.3097443844022 215.913562980214 700.5483206352482 215.913562980214 C 697.7868968860942 215.913562980214 695.5483206352482 213.674986729368 695.5483206352482 210.913562980214 C 695.5483206352482 208.15213923106003 697.7868968860942 205.913562980214 700.5483206352482 205.913562980214 C 703.3097443844022 205.913562980214 705.5483206352482 208.15213923106003 705.5483206352482 210.913562980214 Z" stroke-opacity="1" stroke-linecap="round" stroke-linejoin="round" stroke-miterlimit="10"/><text fill="rgb(21,101,192)" stroke="none" font-family="geogebra-sans-serif, sans-serif" font-size="16px" font-style="normal" font-weight="normal" text-decoration="normal" x="705" y="201" text-anchor="start" dominant-baseline="alphabetic" fill-opacity="1">q=[0,1]</text><text fill="none" stroke="rgb(255,255,255)" font-family="geogebra-sans-serif, sans-serif" font-size="16px" font-style="normal" font-weight="normal" text-decoration="normal" x="705" y="201" text-anchor="start" dominant-baseline="alphabetic" stroke-opacity="1" stroke-linejoin="bevel" stroke-miterlimit="10" stroke-width="3">q=[0,1]</text><text fill="rgb(21,101,192)" stroke="none" font-family="geogebra-sans-serif, sans-serif" font-size="16px" font-style="normal" font-weight="normal" text-decoration="normal" x="705" y="201" text-anchor="start" dominant-baseline="alphabetic" fill-opacity="1">q=[0,1]</text><path fill="rgb(21,101,192)" stroke="none" paint-order="stroke fill markers" d=" M 899.6936268179259 246.89626860605182 C 899.6936268179259 249.6576923552058 897.4550505670799 251.89626860605182 894.6936268179259 251.89626860605182 C 891.9322030687719 251.89626860605182 889.6936268179259 249.6576923552058 889.6936268179259 246.89626860605182 C 889.6936268179259 244.13484485689784 891.9322030687719 241.89626860605182 894.6936268179259 241.89626860605182 C 897.4550505670799 241.89626860605182 899.6936268179259 244.13484485689784 899.6936268179259 246.89626860605182 Z" fill-opacity="1"/><path fill="none" stroke="rgb(0,0,0)" paint-order="fill stroke markers" d=" M 899.6936268179259 246.89626860605182 C 899.6936268179259 249.6576923552058 897.4550505670799 251.89626860605182 894.6936268179259 251.89626860605182 C 891.9322030687719 251.89626860605182 889.6936268179259 249.6576923552058 889.6936268179259 246.89626860605182 C 889.6936268179259 244.13484485689784 891.9322030687719 241.89626860605182 894.6936268179259 241.89626860605182 C 897.4550505670799 241.89626860605182 899.6936268179259 244.13484485689784 899.6936268179259 246.89626860605182 Z" stroke-opacity="1" stroke-linecap="round" stroke-linejoin="round" stroke-miterlimit="10"/><text fill="rgb(21,101,192)" stroke="none" font-family="geogebra-sans-serif, sans-serif" font-size="16px" font-style="normal" font-weight="normal" text-decoration="normal" x="899" y="237" text-anchor="start" dominant-baseline="alphabetic" fill-opacity="1">p`=[cos(θ), sin(θ)]</text><text fill="none" stroke="rgb(255,255,255)" font-family="geogebra-sans-serif, sans-serif" font-size="16px" font-style="normal" font-weight="normal" text-decoration="normal" x="899" y="237" text-anchor="start" dominant-baseline="alphabetic" stroke-opacity="1" stroke-linejoin="bevel" stroke-miterlimit="10" stroke-width="3">p`=[cos(θ), sin(θ)]</text><text fill="rgb(21,101,192)" stroke="none" font-family="geogebra-sans-serif, sans-serif" font-size="16px" font-style="normal" font-weight="normal" text-decoration="normal" x="899" y="237" text-anchor="start" dominant-baseline="alphabetic" fill-opacity="1">p`=[cos(θ), sin(θ)]</text><path fill="rgb(21,101,192)" stroke="none" paint-order="stroke fill markers" d=" M 199.78250653712496 558.5167765214973 C 199.78250653712496 561.2782002706513 197.54393028627894 563.5167765214973 194.78250653712496 563.5167765214973 C 192.02108278797098 563.5167765214973 189.78250653712496 561.2782002706513 189.78250653712496 558.5167765214973 C 189.78250653712496 555.7553527723433 192.02108278797098 553.5167765214973 194.78250653712496 553.5167765214973 C 197.54393028627894 553.5167765214973 199.78250653712496 555.7553527723433 199.78250653712496 558.5167765214973 Z" fill-opacity="1"/><path fill="none" stroke="rgb(0,0,0)" paint-order="fill stroke markers" d=" M 199.78250653712496 558.5167765214973 C 199.78250653712496 561.2782002706513 197.54393028627894 563.5167765214973 194.78250653712496 563.5167765214973 C 192.02108278797098 563.5167765214973 189.78250653712496 561.2782002706513 189.78250653712496 558.5167765214973 C 189.78250653712496 555.7553527723433 192.02108278797098 553.5167765214973 194.78250653712496 553.5167765214973 C 197.54393028627894 553.5167765214973 199.78250653712496 555.7553527723433 199.78250653712496 558.5167765214973 Z" stroke-opacity="1" stroke-linecap="round" stroke-linejoin="round" stroke-miterlimit="10"/><text fill="rgb(21,101,192)" stroke="none" font-family="geogebra-sans-serif, sans-serif" font-size="16px" font-style="normal" font-weight="normal" text-decoration="normal" x="199" y="549" text-anchor="start" dominant-baseline="alphabetic" fill-opacity="1">q`=[-sin(θ), cos(θ)]</text><text fill="none" stroke="rgb(255,255,255)" font-family="geogebra-sans-serif, sans-serif" font-size="16px" font-style="normal" font-weight="normal" text-decoration="normal" x="199" y="549" text-anchor="start" dominant-baseline="alphabetic" stroke-opacity="1" stroke-linejoin="bevel" stroke-miterlimit="10" stroke-width="3">q`=[-sin(θ), cos(θ)]</text><text fill="rgb(21,101,192)" stroke="none" font-family="geogebra-sans-serif, sans-serif" font-size="16px" font-style="normal" font-weight="normal" text-decoration="normal" x="199" y="549" text-anchor="start" dominant-baseline="alphabetic" fill-opacity="1">q`=[-sin(θ), cos(θ)]</text></g></g></svg>