<svg version="1.1" xmlns="http://www.w3.org/2000/svg" xmlns:xlink="http://www.w3.org/1999/xlink" width="879" height="852"><defs><clipPath id="kGidhNcLaQgE"><path fill="none" stroke="none" d=" M 0 0 L 879 0 L 879 852 L 0 852 L 0 0 Z"/></clipPath></defs><g transform="scale(1,1)" clip-path="url(#kGidhNcLaQgE)"><g><rect fill="rgb(255,255,255)" stroke="none" x="0" y="0" width="879" height="852" fill-opacity="1"/><path fill="none" stroke="rgb(192,192,192)" paint-order="fill stroke markers" d=" M 85.5 0.5 L 85.5 852.5 M 85.5 0.5 L 85.5 852.5 M 695.5 0.5 L 695.5 852.5" stroke-opacity="1" stroke-linecap="round" stroke-linejoin="round" stroke-miterlimit="10"/><path fill="none" stroke="rgb(192,192,192)" paint-order="fill stroke markers" d=" M 24.5 0.5 L 24.5 852.5 M 146.5 0.5 L 146.5 852.5 M 207.5 0.5 L 207.5 852.5 M 268.5 0.5 L 268.5 852.5 M 329.5 0.5 L 329.5 852.5 M 451.5 0.5 L 451.5 852.5 M 512.5 0.5 L 512.5 852.5 M 573.5 0.5 L 573.5 852.5 M 634.5 0.5 L 634.5 852.5 M 756.5 0.5 L 756.5 852.5 M 817.5 0.5 L 817.5 852.5 M 878.5 0.5 L 878.5 852.5" stroke-opacity="0.23529411764705882" stroke-linecap="round" stroke-linejoin="round" stroke-miterlimit="10"/><path fill="none" stroke="rgb(192,192,192)" paint-order="fill stroke markers" d=" M 0.5 209.5 L 879.5 209.5 M 0.5 209.5 L 879.5 209.5 M 0.5 819.5 L 879.5 819.5" stroke-opacity="1" stroke-linecap="round" stroke-linejoin="round" stroke-miterlimit="10"/><path fill="none" stroke="rgb(192,192,192)" paint-order="fill stroke markers" d=" M 0.5 26.5 L 879.5 26.5 M 0.5 26.5 L 879.5 26.5 M 0.5 87.5 L 879.5 87.5 M 0.5 148.5 L 879.5 148.5 M 0.5 270.5 L 879.5 270.5 M 0.5 331.5 L 879.5 331.5 M 0.5 392.5 L 879.5 392.5 M 0.5 453.5 L 879.5 453.5 M 0.5 575.5 L 879.5 575.5 M 0.5 636.5 L 879.5 636.5 M 0.5 697.5 L 879.5 697.5 M 0.5 758.5 L 879.5 758.5" stroke-opacity="0.23529411764705882" stroke-linecap="round" stroke-linejoin="round" stroke-miterlimit="10"/><path fill="none" stroke="rgb(0,0,0)" paint-order="fill stroke markers" d=" M 390.5 2.5 L 390.5 852.5" stroke-opacity="1" stroke-miterlimit="10"/><path fill="none" stroke="rgb(0,0,0)" paint-order="fill stroke markers" d=" M 390.5 1.5 L 382.5 9.5" stroke-opacity="1" stroke-miterlimit="10"/><path fill="none" stroke="rgb(0,0,0)" paint-order="fill stroke markers" d=" M 390.5 1.5 L 398.5 9.5" stroke-opacity="1" stroke-miterlimit="10"/><text fill="rgb(0,0,0)" stroke="none" font-family="geogebra-sans-serif, sans-serif" font-size="32px" font-style="normal" font-weight="normal" text-decoration="normal" x="853" y="510" text-anchor="start" dominant-baseline="alphabetic" fill-opacity="1">x</text><path fill="none" stroke="rgb(0,0,0)" paint-order="fill stroke markers" d=" M 0.5 514.5 L 877.5 514.5" stroke-opacity="1" stroke-miterlimit="10"/><path fill="none" stroke="rgb(0,0,0)" paint-order="fill stroke markers" d=" M 878.5 514.5 L 870.5 506.5" stroke-opacity="1" stroke-miterlimit="10"/><path fill="none" stroke="rgb(0,0,0)" paint-order="fill stroke markers" d=" M 878.5 514.5 L 870.5 522.5" stroke-opacity="1" stroke-miterlimit="10"/><text fill="rgb(0,0,0)" stroke="none" font-family="geogebra-sans-serif, sans-serif" font-size="24px" font-style="normal" font-weight="normal" text-decoration="normal" x="74" y="542" text-anchor="start" dominant-baseline="alphabetic" fill-opacity="1">–1</text><text fill="none" stroke="rgb(255,255,255)" font-family="geogebra-sans-serif, sans-serif" font-size="24px" font-style="normal" font-weight="normal" text-decoration="normal" x="74" y="542" text-anchor="start" dominant-baseline="alphabetic" stroke-opacity="1" stroke-linejoin="bevel" stroke-miterlimit="10" stroke-width="3">–1</text><text fill="rgb(0,0,0)" stroke="none" font-family="geogebra-sans-serif, sans-serif" font-size="24px" font-style="normal" font-weight="normal" text-decoration="normal" x="74" y="542" text-anchor="start" dominant-baseline="alphabetic" fill-opacity="1">–1</text><text fill="rgb(0,0,0)" stroke="none" font-family="geogebra-sans-serif, sans-serif" font-size="24px" font-style="normal" font-weight="normal" text-decoration="normal" x="690" y="542" text-anchor="start" dominant-baseline="alphabetic" fill-opacity="1">1</text><text fill="none" stroke="rgb(255,255,255)" font-family="geogebra-sans-serif, sans-serif" font-size="24px" font-style="normal" font-weight="normal" text-decoration="normal" x="690" y="542" text-anchor="start" dominant-baseline="alphabetic" stroke-opacity="1" stroke-linejoin="bevel" stroke-miterlimit="10" stroke-width="3">1</text><text fill="rgb(0,0,0)" stroke="none" font-family="geogebra-sans-serif, sans-serif" font-size="24px" font-style="normal" font-weight="normal" text-decoration="normal" x="690" y="542" text-anchor="start" dominant-baseline="alphabetic" fill-opacity="1">1</text><text fill="rgb(0,0,0)" stroke="none" font-family="geogebra-sans-serif, sans-serif" font-size="32px" font-style="normal" font-weight="normal" text-decoration="normal" x="395" y="29" text-anchor="start" dominant-baseline="alphabetic" fill-opacity="1">y</text><text fill="rgb(0,0,0)" stroke="none" font-family="geogebra-sans-serif, sans-serif" font-size="24px" font-style="normal" font-weight="normal" text-decoration="normal" x="353" y="830" text-anchor="start" dominant-baseline="alphabetic" fill-opacity="1">–1</text><text fill="none" stroke="rgb(255,255,255)" font-family="geogebra-sans-serif, sans-serif" font-size="24px" font-style="normal" font-weight="normal" text-decoration="normal" x="353" y="830" text-anchor="start" dominant-baseline="alphabetic" stroke-opacity="1" stroke-linejoin="bevel" stroke-miterlimit="10" stroke-width="3">–1</text><text fill="rgb(0,0,0)" stroke="none" font-family="geogebra-sans-serif, sans-serif" font-size="24px" font-style="normal" font-weight="normal" text-decoration="normal" x="353" y="830" text-anchor="start" dominant-baseline="alphabetic" fill-opacity="1">–1</text><text fill="rgb(0,0,0)" stroke="none" font-family="geogebra-sans-serif, sans-serif" font-size="24px" font-style="normal" font-weight="normal" text-decoration="normal" x="367" y="220" text-anchor="start" dominant-baseline="alphabetic" fill-opacity="1">1</text><text fill="none" stroke="rgb(255,255,255)" font-family="geogebra-sans-serif, sans-serif" font-size="24px" font-style="normal" font-weight="normal" text-decoration="normal" x="367" y="220" text-anchor="start" dominant-baseline="alphabetic" stroke-opacity="1" stroke-linejoin="bevel" stroke-miterlimit="10" stroke-width="3">1</text><text fill="rgb(0,0,0)" stroke="none" font-family="geogebra-sans-serif, sans-serif" font-size="24px" font-style="normal" font-weight="normal" text-decoration="normal" x="367" y="220" text-anchor="start" dominant-baseline="alphabetic" fill-opacity="1">1</text><text fill="rgb(0,0,0)" stroke="none" font-family="geogebra-sans-serif, sans-serif" font-size="24px" font-style="normal" font-weight="normal" text-decoration="normal" x="367" y="542" text-anchor="start" dominant-baseline="alphabetic" fill-opacity="1">0</text><text fill="none" stroke="rgb(255,255,255)" font-family="geogebra-sans-serif, sans-serif" font-size="24px" font-style="normal" font-weight="normal" text-decoration="normal" x="367" y="542" text-anchor="start" dominant-baseline="alphabetic" stroke-opacity="1" stroke-linejoin="bevel" stroke-miterlimit="10" stroke-width="3">0</text><text fill="rgb(0,0,0)" stroke="none" font-family="geogebra-sans-serif, sans-serif" font-size="24px" font-style="normal" font-weight="normal" text-decoration="normal" x="367" y="542" text-anchor="start" dominant-baseline="alphabetic" fill-opacity="1">0</text><path fill="rgb(0,153,255)" stroke="none" paint-order="stroke fill markers" d=" M 490.740545133003 514.208477775908 C 490.740545133003 472.8073773141972 465.22859711403055 435.6872626075701 426.57734008753306 420.85043512618785 L 390.740545133003 514.208477775908 Z" fill-opacity="0.09803921568627451"/><path fill="none" stroke="rgb(0,153,255)" paint-order="fill stroke markers" d=" M 490.740545133003 514.208477775908 C 490.740545133003 472.8073773141972 465.22859711403055 435.6872626075701 426.57734008753306 420.85043512618785 L 390.740545133003 514.208477775908 Z" stroke-opacity="0.6" stroke-linecap="round" stroke-linejoin="round" stroke-miterlimit="10" stroke-width="3.5"/><path fill="rgb(0,153,255)" stroke="none" paint-order="stroke fill markers" fill-rule="evenodd" d=" M 426.57734008753306 420.85043512618785 L 442.8149151742492 422.88695306209104 L 438.3454893953641 432.22219452694003 Z" fill-opacity="0.6"/><text fill="rgb(0,153,255)" stroke="none" font-family="geogebra-sans-serif, sans-serif" font-size="32px" font-style="normal" font-weight="normal" text-decoration="normal" x="436" y="485" text-anchor="start" dominant-baseline="alphabetic" fill-opacity="1">θ</text><text fill="none" stroke="rgb(255,255,255)" font-family="geogebra-sans-serif, sans-serif" font-size="32px" font-style="normal" font-weight="normal" text-decoration="normal" x="436" y="485" text-anchor="start" dominant-baseline="alphabetic" stroke-opacity="1" stroke-linejoin="bevel" stroke-miterlimit="10" stroke-width="3">θ</text><text fill="rgb(0,153,255)" stroke="none" font-family="geogebra-sans-serif, sans-serif" font-size="32px" font-style="normal" font-weight="normal" text-decoration="normal" x="436" y="485" text-anchor="start" dominant-baseline="alphabetic" fill-opacity="1">θ</text><path fill="rgb(0,153,255)" stroke="none" paint-order="stroke fill markers" d=" M 390.740545133003 414.208477775908 C 349.33944467129226 414.208477775908 312.2193299646652 439.7204257948805 297.3825024832829 478.37168282137793 L 390.740545133003 514.208477775908 Z" fill-opacity="0.09803921568627451"/><path fill="none" stroke="rgb(0,153,255)" paint-order="fill stroke markers" d=" M 390.740545133003 414.208477775908 C 349.33944467129226 414.208477775908 312.2193299646652 439.7204257948805 297.3825024832829 478.37168282137793 L 390.740545133003 514.208477775908 Z" stroke-opacity="0.6" stroke-linecap="round" stroke-linejoin="round" stroke-miterlimit="10" stroke-width="3.5"/><path fill="rgb(0,153,255)" stroke="none" paint-order="stroke fill markers" fill-rule="evenodd" d=" M 297.3825024832829 478.37168282137793 L 299.41902041918604 462.1341077346618 L 308.7542618840351 466.60353351354695 Z" fill-opacity="0.6"/><text fill="rgb(0,153,255)" stroke="none" font-family="geogebra-sans-serif, sans-serif" font-size="32px" font-style="normal" font-weight="normal" text-decoration="normal" x="354" y="470" text-anchor="start" dominant-baseline="alphabetic" fill-opacity="1">θ</text><text fill="none" stroke="rgb(255,255,255)" font-family="geogebra-sans-serif, sans-serif" font-size="32px" font-style="normal" font-weight="normal" text-decoration="normal" x="354" y="470" text-anchor="start" dominant-baseline="alphabetic" stroke-opacity="1" stroke-linejoin="bevel" stroke-miterlimit="10" stroke-width="3">θ</text><text fill="rgb(0,153,255)" stroke="none" font-family="geogebra-sans-serif, sans-serif" font-size="32px" font-style="normal" font-weight="normal" text-decoration="normal" x="354" y="470" text-anchor="start" dominant-baseline="alphabetic" fill-opacity="1">θ</text><path fill="none" stroke="rgb(102,204,0)" paint-order="fill stroke markers" d=" M 390.740545133003 514.208477775908 L 665.8040222544467 514.208477775908" stroke-opacity="0.6980392156862745" stroke-linecap="round" stroke-linejoin="round" stroke-miterlimit="10" stroke-width="5"/><path fill="rgb(102,204,0)" stroke="none" paint-order="stroke fill markers" fill-rule="evenodd" d=" M 695.8040222544467 514.208477775908 L 665.8040222544467 521.708477775908 L 665.8040222544467 506.708477775908 Z" fill-opacity="0.6980392156862745"/><path fill="none" stroke="rgb(153,204,0)" paint-order="fill stroke markers" d=" M 390.740545133003 514.208477775908 L 390.740545133003 239.1450006544643" stroke-opacity="0.6980392156862745" stroke-linecap="round" stroke-linejoin="round" stroke-miterlimit="10" stroke-width="5"/><path fill="rgb(153,204,0)" stroke="none" paint-order="stroke fill markers" fill-rule="evenodd" d=" M 390.740545133003 209.1450006544643 L 398.240545133003 239.1450006544643 L 383.240545133003 239.1450006544643 Z" fill-opacity="0.6980392156862745"/><path fill="none" stroke="rgb(255,102,153)" paint-order="fill stroke markers" d=" M 390.740545133003 514.208477775908 L 489.31447942381544 257.4145994910673" stroke-opacity="0.6980392156862745" stroke-linecap="round" stroke-linejoin="round" stroke-miterlimit="10" stroke-width="5"/><path fill="rgb(255,102,153)" stroke="none" paint-order="stroke fill markers" fill-rule="evenodd" d=" M 500.06551791017444 229.40718669615126 L 496.31633262254445 260.10235911265704 L 482.31262622508643 254.72683986947754 Z" fill-opacity="0.6980392156862745"/><path fill="none" stroke="rgb(255,102,153)" paint-order="fill stroke markers" d=" M 390.740545133003 514.208477775908 L 133.9466668481623 415.6345434850955" stroke-opacity="0.6980392156862745" stroke-linecap="round" stroke-linejoin="round" stroke-miterlimit="10" stroke-width="5"/><path fill="rgb(255,102,153)" stroke="none" paint-order="stroke fill markers" fill-rule="evenodd" d=" M 105.93925405324626 404.8835049987365 L 136.63442646975204 408.6326902863665 L 131.25890722657255 422.6363966838245 Z" fill-opacity="0.6980392156862745"/><path fill="rgb(97,97,97)" stroke="none" paint-order="stroke fill markers" d=" M 395.740545133003 514.208477775908 C 395.740545133003 516.969901525062 393.501968882157 519.208477775908 390.740545133003 519.208477775908 C 387.9791213838491 519.208477775908 385.740545133003 516.969901525062 385.740545133003 514.208477775908 C 385.740545133003 511.4470540267541 387.9791213838491 509.208477775908 390.740545133003 509.208477775908 C 393.501968882157 509.208477775908 395.740545133003 511.4470540267541 395.740545133003 514.208477775908 Z" fill-opacity="1"/><path fill="none" stroke="rgb(0,0,0)" paint-order="fill stroke markers" d=" M 395.740545133003 514.208477775908 C 395.740545133003 516.969901525062 393.501968882157 519.208477775908 390.740545133003 519.208477775908 C 387.9791213838491 519.208477775908 385.740545133003 516.969901525062 385.740545133003 514.208477775908 C 385.740545133003 511.4470540267541 387.9791213838491 509.208477775908 390.740545133003 509.208477775908 C 393.501968882157 509.208477775908 395.740545133003 511.4470540267541 395.740545133003 514.208477775908 Z" stroke-opacity="1" stroke-linecap="round" stroke-linejoin="round" stroke-miterlimit="10"/><path fill="rgb(153,204,0)" stroke="none" paint-order="stroke fill markers" d=" M 700.8040222544467 514.208477775908 C 700.8040222544467 516.969901525062 698.5654460036008 519.208477775908 695.8040222544467 519.208477775908 C 693.0425985052927 519.208477775908 690.8040222544467 516.969901525062 690.8040222544467 514.208477775908 C 690.8040222544467 511.4470540267541 693.0425985052927 509.208477775908 695.8040222544467 509.208477775908 C 698.5654460036008 509.208477775908 700.8040222544467 511.4470540267541 700.8040222544467 514.208477775908 Z" fill-opacity="1"/><path fill="none" stroke="rgb(0,0,0)" paint-order="fill stroke markers" d=" M 700.8040222544467 514.208477775908 C 700.8040222544467 516.969901525062 698.5654460036008 519.208477775908 695.8040222544467 519.208477775908 C 693.0425985052927 519.208477775908 690.8040222544467 516.969901525062 690.8040222544467 514.208477775908 C 690.8040222544467 511.4470540267541 693.0425985052927 509.208477775908 695.8040222544467 509.208477775908 C 698.5654460036008 509.208477775908 700.8040222544467 511.4470540267541 700.8040222544467 514.208477775908 Z" stroke-opacity="1" stroke-linecap="round" stroke-linejoin="round" stroke-miterlimit="10"/><text fill="rgb(153,204,0)" stroke="none" font-family="geogebra-sans-serif, sans-serif" font-size="32px" font-style="normal" font-weight="normal" text-decoration="normal" x="700" y="504" text-anchor="start" dominant-baseline="alphabetic" fill-opacity="1">p=[1,0]</text><text fill="none" stroke="rgb(255,255,255)" font-family="geogebra-sans-serif, sans-serif" font-size="32px" font-style="normal" font-weight="normal" text-decoration="normal" x="700" y="504" text-anchor="start" dominant-baseline="alphabetic" stroke-opacity="1" stroke-linejoin="bevel" stroke-miterlimit="10" stroke-width="3">p=[1,0]</text><text fill="rgb(153,204,0)" stroke="none" font-family="geogebra-sans-serif, sans-serif" font-size="32px" font-style="normal" font-weight="normal" text-decoration="normal" x="700" y="504" text-anchor="start" dominant-baseline="alphabetic" fill-opacity="1">p=[1,0]</text><path fill="rgb(153,204,0)" stroke="none" paint-order="stroke fill markers" d=" M 395.740545133003 209.1450006544643 C 395.740545133003 211.90642440361827 393.501968882157 214.1450006544643 390.740545133003 214.1450006544643 C 387.9791213838491 214.1450006544643 385.740545133003 211.90642440361827 385.740545133003 209.1450006544643 C 385.740545133003 206.38357690531032 387.9791213838491 204.1450006544643 390.740545133003 204.1450006544643 C 393.501968882157 204.1450006544643 395.740545133003 206.38357690531032 395.740545133003 209.1450006544643 Z" fill-opacity="1"/><path fill="none" stroke="rgb(0,0,0)" paint-order="fill stroke markers" d=" M 395.740545133003 209.1450006544643 C 395.740545133003 211.90642440361827 393.501968882157 214.1450006544643 390.740545133003 214.1450006544643 C 387.9791213838491 214.1450006544643 385.740545133003 211.90642440361827 385.740545133003 209.1450006544643 C 385.740545133003 206.38357690531032 387.9791213838491 204.1450006544643 390.740545133003 204.1450006544643 C 393.501968882157 204.1450006544643 395.740545133003 206.38357690531032 395.740545133003 209.1450006544643 Z" stroke-opacity="1" stroke-linecap="round" stroke-linejoin="round" stroke-miterlimit="10"/><text fill="rgb(153,204,0)" stroke="none" font-family="geogebra-sans-serif, sans-serif" font-size="32px" font-style="normal" font-weight="normal" text-decoration="normal" x="395" y="199" text-anchor="start" dominant-baseline="alphabetic" fill-opacity="1">q=[0,1]</text><text fill="none" stroke="rgb(255,255,255)" font-family="geogebra-sans-serif, sans-serif" font-size="32px" font-style="normal" font-weight="normal" text-decoration="normal" x="395" y="199" text-anchor="start" dominant-baseline="alphabetic" stroke-opacity="1" stroke-linejoin="bevel" stroke-miterlimit="10" stroke-width="3">q=[0,1]</text><text fill="rgb(153,204,0)" stroke="none" font-family="geogebra-sans-serif, sans-serif" font-size="32px" font-style="normal" font-weight="normal" text-decoration="normal" x="395" y="199" text-anchor="start" dominant-baseline="alphabetic" fill-opacity="1">q=[0,1]</text><path fill="rgb(255,51,102)" stroke="none" paint-order="stroke fill markers" d=" M 505.06551791017444 229.40718669615126 C 505.06551791017444 232.16861044530523 502.8269416593284 234.40718669615126 500.06551791017444 234.40718669615126 C 497.3040941610205 234.40718669615126 495.06551791017444 232.16861044530523 495.06551791017444 229.40718669615126 C 495.06551791017444 226.64576294699728 497.3040941610205 224.40718669615126 500.06551791017444 224.40718669615126 C 502.8269416593284 224.40718669615126 505.06551791017444 226.64576294699728 505.06551791017444 229.40718669615126 Z" fill-opacity="1"/><path fill="none" stroke="rgb(0,0,0)" paint-order="fill stroke markers" d=" M 505.06551791017444 229.40718669615126 C 505.06551791017444 232.16861044530523 502.8269416593284 234.40718669615126 500.06551791017444 234.40718669615126 C 497.3040941610205 234.40718669615126 495.06551791017444 232.16861044530523 495.06551791017444 229.40718669615126 C 495.06551791017444 226.64576294699728 497.3040941610205 224.40718669615126 500.06551791017444 224.40718669615126 C 502.8269416593284 224.40718669615126 505.06551791017444 226.64576294699728 505.06551791017444 229.40718669615126 Z" stroke-opacity="1" stroke-linecap="round" stroke-linejoin="round" stroke-miterlimit="10"/><text fill="rgb(255,51,102)" stroke="none" font-family="geogebra-sans-serif, sans-serif" font-size="32px" font-style="normal" font-weight="normal" text-decoration="normal" x="504" y="219" text-anchor="start" dominant-baseline="alphabetic" fill-opacity="1">p'=[cos(θ), sin(θ)]</text><text fill="none" stroke="rgb(255,255,255)" font-family="geogebra-sans-serif, sans-serif" font-size="32px" font-style="normal" font-weight="normal" text-decoration="normal" x="504" y="219" text-anchor="start" dominant-baseline="alphabetic" stroke-opacity="1" stroke-linejoin="bevel" stroke-miterlimit="10" stroke-width="3">p'=[cos(θ), sin(θ)]</text><text fill="rgb(255,51,102)" stroke="none" font-family="geogebra-sans-serif, sans-serif" font-size="32px" font-style="normal" font-weight="normal" text-decoration="normal" x="504" y="219" text-anchor="start" dominant-baseline="alphabetic" fill-opacity="1">p'=[cos(θ), sin(θ)]</text><path fill="rgb(255,51,102)" stroke="none" paint-order="stroke fill markers" d=" M 110.93925405324626 404.8835049987365 C 110.93925405324626 407.64492874789045 108.70067780240022 409.8835049987365 105.93925405324626 409.8835049987365 C 103.1778303040923 409.8835049987365 100.93925405324626 407.64492874789045 100.93925405324626 404.8835049987365 C 100.93925405324626 402.12208124958255 103.1778303040923 399.8835049987365 105.93925405324626 399.8835049987365 C 108.70067780240022 399.8835049987365 110.93925405324626 402.12208124958255 110.93925405324626 404.8835049987365 Z" fill-opacity="1"/><path fill="none" stroke="rgb(0,0,0)" paint-order="fill stroke markers" d=" M 110.93925405324626 404.8835049987365 C 110.93925405324626 407.64492874789045 108.70067780240022 409.8835049987365 105.93925405324626 409.8835049987365 C 103.1778303040923 409.8835049987365 100.93925405324626 407.64492874789045 100.93925405324626 404.8835049987365 C 100.93925405324626 402.12208124958255 103.1778303040923 399.8835049987365 105.93925405324626 399.8835049987365 C 108.70067780240022 399.8835049987365 110.93925405324626 402.12208124958255 110.93925405324626 404.8835049987365 Z" stroke-opacity="1" stroke-linecap="round" stroke-linejoin="round" stroke-miterlimit="10"/><text fill="rgb(255,51,102)" stroke="none" font-family="geogebra-sans-serif, sans-serif" font-size="32px" font-style="normal" font-weight="normal" text-decoration="normal" x="110" y="395" text-anchor="start" dominant-baseline="alphabetic" fill-opacity="1">q'=[-sin(θ), cos(θ)]</text><text fill="none" stroke="rgb(255,255,255)" font-family="geogebra-sans-serif, sans-serif" font-size="32px" font-style="normal" font-weight="normal" text-decoration="normal" x="110" y="395" text-anchor="start" dominant-baseline="alphabetic" stroke-opacity="1" stroke-linejoin="bevel" stroke-miterlimit="10" stroke-width="3">q'=[-sin(θ), cos(θ)]</text><text fill="rgb(255,51,102)" stroke="none" font-family="geogebra-sans-serif, sans-serif" font-size="32px" font-style="normal" font-weight="normal" text-decoration="normal" x="110" y="395" text-anchor="start" dominant-baseline="alphabetic" fill-opacity="1">q'=[-sin(θ), cos(θ)]</text></g></g></svg>